<svg xmlns="http://www.w3.org/2000/svg" width="37.5" viewBox="0 0 37.5 45" height="45" version="1.0"><defs><clipPath id="a"><path d="M 19 1 L 35.140625 1 L 35.140625 44 L 19 44 Z M 19 1"/></clipPath><clipPath id="b"><path d="M 7 34 L 24 34 L 24 44.703125 L 7 44.703125 Z M 7 34"/></clipPath><clipPath id="c"><path d="M 2.140625 1 L 24 1 L 24 34 L 2.140625 34 Z M 2.140625 1"/></clipPath></defs><g clip-path="url(#a)"><path fill="#E65100" d="M 31.761719 4.925781 C 33.714844 5.46875 35.0625 7.234375 35.0625 9.25 L 35.0625 36.082031 C 35.0625 38.113281 33.6875 39.886719 31.707031 40.417969 L 19.476562 43.871094 L 23.410156 35.484375 L 23.410156 8.828125 L 20.074219 1.484375 Z M 31.761719 4.925781"/></g><g clip-path="url(#b)"><path fill="#B71C1C" d="M 23.410156 34.417969 L 23.410156 38.605469 C 23.410156 42.664062 19.355469 45.269531 15.972656 43.394531 L 8.621094 38.65625 C 7.773438 38.160156 7.3125 37.097656 7.601562 36.035156 C 7.871094 35.046875 8.789062 34.417969 9.757812 34.417969 Z M 23.410156 34.417969"/></g><g clip-path="url(#c)"><path fill="#B71C1C" d="M 9.058594 31.464844 L 5.457031 33.066406 C 4.011719 33.921875 2.21875 32.839844 2.21875 31.113281 L 2.21875 12.988281 C 2.21875 11.351562 3.078125 9.84375 4.460938 9.054688 L 16.996094 1.921875 C 19.878906 0.277344 23.410156 2.445312 23.410156 5.859375 L 23.410156 9.15625 L 12.773438 12.871094 C 11.519531 13.371094 10.695312 14.625 10.695312 16.015625 L 10.695312 28.539062 C 10.695312 29.746094 10.070312 30.863281 9.058594 31.464844 Z M 9.058594 31.464844"/></g></svg>