<svg xmlns="http://www.w3.org/2000/svg" width="375" viewBox="0 0 375 112.5" height="112.5" version="1.0"><defs><clipPath id="a"><path d="M 225 55 L 282 55 L 282 110.507812 L 225 110.507812 Z M 225 55"/></clipPath><clipPath id="b"><path d="M 0.828125 4 L 51 4 L 51 107 L 0.828125 107 Z M 0.828125 4"/></clipPath></defs><path fill="#FFF" d="M 327.054688 4.230469 L 281.484375 4.230469 L 281.484375 22.023438 L 313.226562 22.023438 L 313.226562 108 L 328.550781 108 L 328.550781 22.039062 L 330.199219 22.039062 C 352.894531 22.039062 368.734375 17.746094 372.125 5.554688 C 372.25 5.105469 372.382812 4.246094 372.382812 4.246094 Z M 114.15625 23.511719 L 114.15625 108.015625 L 180.730469 108.015625 L 180.730469 90.21875 L 129.472656 90.21875 L 129.472656 62.460938 L 164.4375 62.460938 L 164.4375 48.523438 L 129.472656 48.523438 L 129.472656 23.523438 L 114.148438 23.523438 L 114.148438 23.515625 Z M 252.488281 71.785156 C 258.679688 68.886719 263.882812 64.226562 267.449219 58.390625 C 271.019531 52.5625 272.789062 45.808594 272.539062 38.980469 C 272.539062 19.804688 259.117188 4.210938 242.617188 4.210938 L 210.757812 4.210938 L 210.757812 4.234375 L 202.230469 4.234375 L 202.230469 108.003906 L 217.546875 108.003906 L 217.546875 22.125 L 242.617188 22.125 C 246.652344 22.738281 250.335938 24.773438 253 27.867188 C 255.660156 30.960938 257.125 34.902344 257.125 38.980469 C 257.125 43.058594 255.660156 47.003906 253 50.097656 C 250.335938 53.1875 246.652344 55.226562 242.617188 55.839844 L 238.941406 55.839844 L 252.15625 71.390625 L 252.484375 71.785156 Z M 252.488281 71.785156"/><path fill="#FFF" d="M 225.800781 68.046875 L 228.378906 71.074219 Z M 236.328125 56.5625 L 236.992188 55.839844 Z M 236.328125 56.5625"/><g clip-path="url(#a)"><path fill="#FFF" d="M 251.019531 72.34375 L 237.003906 55.84375 L 236.339844 56.5625 L 225.796875 68.046875 L 228.375 71.074219 L 230.65625 73.753906 L 240.679688 85.515625 C 253.875 101.367188 264.960938 110.5 273.875 110.5 C 276.101562 110.507812 278.28125 109.902344 280.175781 108.738281 C 280.515625 108.519531 280.847656 108.28125 281.164062 108.027344 L 251.023438 72.347656 Z M 251.019531 72.34375"/></g><g clip-path="url(#b)"><path fill="#FFF" d="M 19.449219 4.230469 L 0.828125 4.230469 L 40.582031 106.101562 L 50.132812 82.855469 C 39.09375 54.601562 22.335938 11.65625 19.449219 4.230469 Z M 19.449219 4.230469"/></g><path fill="#FFF" d="M 101.226562 0.0078125 C 89.242188 0.0078125 79.761719 13.710938 69.707031 38.496094 L 65.414062 49.070312 C 64.480469 51.324219 63.507812 53.695312 62.5 56.1875 L 56.769531 70.355469 L 51.589844 83.167969 L 41.359375 108.113281 L 60.195312 108.113281 L 103.84375 0.378906 C 103.449219 0.25 103.042969 0.148438 102.628906 0.0820312 C 102.183594 0.0273438 101.699219 0.0078125 101.226562 0.0078125 Z M 142.222656 22.039062 L 143.875 22.039062 C 162.367188 22.039062 182.398438 17.746094 185.792969 5.554688 C 185.917969 5.109375 186.050781 4.246094 186.050781 4.246094 L 129.996094 4.246094 L 114.15625 22.039062 Z M 142.222656 22.039062"/></svg>