<svg xmlns="http://www.w3.org/2000/svg" width="81" height="24" fill="none" viewBox="0 0 81 24">
    <path fill="#1D3526" d="M70.778.917h-9.887v3.865h6.887v18.675h3.324V4.785h.358c4.924 0 8.361-.932 9.096-3.58.027-.098.056-.285.056-.285L70.778.917zM24.587 5.105V23.46h14.444v-3.865H27.91v-6.03h7.586v-3.027h-7.586v-5.43h-3.324v-.002zM54.6 15.591c1.343-.63 2.472-1.642 3.246-2.91.774-1.266 1.158-2.733 1.104-4.216 0-4.165-2.912-7.552-6.492-7.552h-6.912v.005h-1.85v22.54h3.323V4.804h5.439c.876.133 1.675.575 2.253 1.247.577.672.895 1.528.895 2.414 0 .886-.318 1.743-.895 2.415-.578.671-1.377 1.114-2.253 1.247h-.797l2.867 3.378.071.086z"/>
    <path fill="#000" d="M48.81 14.779l.559.657-.559-.657zM51.094 12.284l.144-.157-.144.157z"/>
    <path fill="#0C6368" d="M54.281 15.712l-3.041-3.584-.144.156-2.287 2.495.559.657.495.582 2.175 2.555C54.901 22.016 57.306 24 59.24 24c.483.002.956-.13 1.367-.383.074-.047.146-.099.214-.154l-6.539-7.75z"/>
    <path fill="#1D3526" d="M4.04.917H0l8.625 22.128 2.072-5.05C8.302 11.858 4.666 2.53 4.04.917z"/>
    <path fill="#0C6368" d="M21.782 0c-2.6 0-4.657 2.976-6.838 8.36l-.932 2.297c-.202.489-.413 1.004-.632 1.546l-1.243 3.077-1.124 2.783-2.22 5.419h4.087L22.35.08c-.086-.028-.174-.05-.264-.064C21.99.004 21.885 0 21.782 0zM30.677 4.785h.358c4.012 0 8.358-.932 9.095-3.58.027-.097.056-.285.056-.285H28.024l-3.437 3.865h6.09z"/>
</svg>
